g CafeteriaCeilingHoles_Mesh
v 125 0 5
v 125 30 5
v -5 30 5
v -5 0 5
v 125 30 5
v 125 40 5
v -5 40 5
v -5 30 5
v -5 0 -85
v -5 30 -85
v 125 30 -85
v 125 0 -85
v -5 40 5
v 125 40 5
v 125 40 -85
v -5 40 -85
v -5 30 -85
v -5 40 -85
v 125 40 -85
v 125 30 -85
v 125 30 -85
v 125 40 -85
v 125 40 5
v 125 30 5
v -5 30 5
v -5 40 5
v -5 40 -85
v -5 30 -85
v -5 0 5
v -5 30 5
v -5 30 -25
v -5 20 -25
v -5 20 -35
v -5 30 -35
v -5 30 -85
v -5 0 -85
v 125 30 5
v 125 0 5
v 125 0 -85
v 125 30 -85
v 125 30 -35
v 125 20 -35
v 125 20 -25
v 125 30 -25
vt -12 23
vt -12 26
vt 1 26
vt 1 23
vt -12 26
vt -12 27
vt 1 27
vt 1 26
vt 0 23
vt 0 26
vt 13 26
vt 13 23
vt -5 -5
vt 125 -5
vt 125 85
vt -5 85
vt 0 26
vt 0 27
vt 13 27
vt 13 26
vt -44 35
vt -44 36
vt -35 36
vt -35 35
vt 36 35
vt 36 36
vt 45 36
vt 45 35
vt 35.5 14
vt 35.5 17
vt 38.5 17
vt 38.5 16
vt 39.5 16
vt 39.5 17
vt 44.5 17
vt 44.5 14
vt -35.5 17
vt -35.5 14
vt -44.5 14
vt -44.5 17
vt -39.5 17
vt -39.5 16
vt -38.5 16
vt -38.5 17
vn 0 0 -1
vn 0 0 -1
vn 0 0 -1
vn 0 0 -1
vn 0 0 -1
vn 0 0 -1
vn 0 0 -1
vn 0 0 -1
vn 0 0 1
vn 0 0 1
vn 0 0 1
vn 0 0 1
vn 0 -1 0
vn 0 -1 0
vn 0 -1 0
vn 0 -1 0
vn 0 0 1
vn 0 0 1
vn 0 0 1
vn 0 0 1
vn -1 0 0
vn -1 0 0
vn -1 0 0
vn -1 0 0
vn 1 0 0
vn 1 0 0
vn 1 0 0
vn 1 0 0
vn 1 0 0
vn 1 0 0
vn 1 0 0
vn 1 0 0
vn 1 0 0
vn 1 0 0
vn 1 0 0
vn 1 0 0
vn -1 0 0
vn -1 0 0
vn -1 0 0
vn -1 0 0
vn -1 0 0
vn -1 0 0
vn -1 0 0
vn -1 0 0
g CafeteriaCeilingHoles_Mesh_0
f 3/3/3 2/2/2 1/1/1
f 4/4/4 3/3/3 1/1/1
f 11/11/11 10/10/10 9/9/9
f 12/12/12 11/11/11 9/9/9
f 34/34/34 33/33/33 35/35/35
f 29/29/29 36/36/36 35/35/35
f 29/29/29 35/35/35 33/33/33
f 29/29/29 33/33/33 32/32/32
f 29/29/29 32/32/32 31/31/31
f 29/29/29 31/31/31 30/30/30
f 39/39/39 38/38/38 43/43/43
f 43/43/43 38/38/38 37/37/37
f 43/43/43 37/37/37 44/44/44
f 39/39/39 43/43/43 42/42/42
f 39/39/39 42/42/42 41/41/41
f 39/39/39 41/41/41 40/40/40
g CafeteriaCeilingHoles_Mesh_1
f 7/7/7 6/6/6 5/5/5
f 8/8/8 7/7/7 5/5/5
f 19/19/19 18/18/18 17/17/17
f 20/20/20 19/19/19 17/17/17
f 23/23/23 22/22/22 21/21/21
f 24/24/24 23/23/23 21/21/21
f 27/27/27 26/26/26 25/25/25
f 28/28/28 27/27/27 25/25/25
g CafeteriaCeilingHoles_Mesh_2
f 15/15/15 14/14/14 13/13/13
f 16/16/16 15/15/15 13/13/13
