# File generated by ImageToStl.com - Free Image and 3D model conversion tools

mtllib RoundDesk_Mesh.mtl

o obj1
v -8.04892349 0 -2.29610085
v -6.36396122 0 -6.36396122
v -5.54327726 0 -2.29610062
v -2.29609966 0 -5.54327726
v 0 0 -9
v 2.2960999 0 -5.54327726
v 6.36396074 0 -6.36396122
v 5.54327822 0 -2.2960999
v 5.54327631 0 2.29610157
v 6.36396074 0 6.36396074
v 9 0 0
v -8.04892445 0 2.29610038
v -5.54327726 0 2.29610014
v -6.36396122 0 6.36396122
v -2.29609942 0 5.54327726
v 9.5E-07 0 9
v 2.29610014 0 5.54327726
v -7.07106781 4 -7.07106781
v -7.07106781 3 -7.07106781
v -9.04892349 3 -2.29610062
v -9.04892349 4 -2.29610062
v -7.07106781 3 -7.07106781
v -7.07106781 4 -7.07106781
v 0 4 -10
v 0 3 -10
v 7.07106781 3 -7.07106781
v 7.07106781 4 -7.07106781
v 7.07106781 3 -7.07106781
v 7.07106781 4 -7.07106781
v 10 4 4.8E-07
v 10 3 4.8E-07
v 7.07106781 3 7.07106781
v 7.07106781 4 7.07106781
v 4.8E-07 3 10
v 7.07106781 3 7.07106781
v 7.07106781 4 7.07106781
v 4.8E-07 4 10
v -7.07106781 4 7.07106781
v -7.07106781 3 7.07106781
v -7.07106781 3 7.07106781
v -7.07106781 4 7.07106781
v -9.04892349 4 2.29610062
v -9.04892445 3 2.29610014
v -9.04892349 3 -2.29610062
v -7.07106781 3 -7.07106781
v -8.04892349 3 -2.29610062
v -6.36396122 3 -6.36396122
v 0 3 -10
v 0 3 -9
v 6.36396074 3 -6.36396122
v 7.07106781 3 -7.07106781
v 9 3 0
v 7.07106781 3 7.07106781
v 10 3 4.8E-07
v -9.04892349 3 2.29610062
v -8.04892445 3 2.29610014
v -7.07106781 3 7.07106781
v -6.36396122 3 6.36396122
v 9.5E-07 3 9
v 4.8E-07 3 10
v 6.36396074 3 6.36396074
v -6.36396122 3 -6.36396122
v -6.36396122 0 -6.36396122
v -8.04892349 0 -2.29610062
v -8.04892349 3 -2.29610085
v -6.36396122 0 -6.36396122
v -6.36396122 3 -6.36396122
v 0 3 -9
v 0 0 -9
v 6.36396074 0 -6.36396122
v 6.36396074 3 -6.36396122
v 6.36396074 0 -6.36396122
v 6.36396074 3 -6.36396122
v 9 3 0
v 9 0 0
v 6.36396074 0 6.36396074
v 6.36396074 3 6.36396074
v 9.5E-07 0 9
v 6.36396074 0 6.36396074
v 6.36396074 3 6.36396074
v 9.5E-07 3 9
v -6.36396122 3 6.36396122
v -6.36396122 0 6.36396122
v -6.36396122 0 6.36396122
v -6.36396122 3 6.36396122
v -8.04892445 3 2.29610038
v -8.04892445 0 2.29610014
v -9.04892349 4 2.29610062
v -7.07106781 4 7.07106781
v -5.54327726 4 2.29610014
v -2.29610014 4 5.54327726
v 4.8E-07 4 10
v 2.29610062 4 5.54327679
v 5.54327679 4 2.29610109
v 7.07106781 4 7.07106781
v 5.54327726 4 -2.29610014
v 7.07106781 4 -7.07106781
v 10 4 4.8E-07
v -7.07106781 4 -7.07106781
v -9.04892349 4 -2.29610062
v -5.54327726 4 -2.29610062
v -2.29609966 4 -5.54327726
v 0 4 -10
v 2.29610062 4 -5.54327679
v -8.04892349 0 -2.29610085
v -5.54327726 0 -2.29610062
v -8.04892349 3 -2.29610085
v -5.54327726 4 -2.29610062
v -9.04892349 3 -2.29610062
v -9.04892349 4 -2.29610062
v -2.29609966 0 -5.54327726
v -2.29609966 4 -5.54327726
v 2.2960999 0 -5.54327726
v 2.29610062 4 -5.54327679
v 5.54327822 0 -2.2960999
v 5.54327726 4 -2.29610014
v 5.54327822 0 -2.2960999
v 5.54327631 0 2.29610157
v 5.54327679 4 2.29610109
v 5.54327726 4 -2.29610014
v 5.54327631 0 2.29610157
v 2.29610014 0 5.54327726
v 2.29610062 4 5.54327679
v 5.54327679 4 2.29610109
v -2.29609942 0 5.54327726
v -2.29610014 4 5.54327726
v -5.54327726 0 2.29610014
v -5.54327726 4 2.29610014
v -8.04892445 0 2.29610014
v -8.04892445 3 2.29610014
v -9.04892349 4 2.29610062
v -9.04892445 3 2.29610014
vn -0 -1 0
vn -0.92388 0 -0.38268
vn -0.38268 0 -0.92388
vn 0.38268 0 -0.92388
vn 0.92388 0 -0.38268
vn 0.92388 0 0.38268
vn 0.38268 0 0.92388
vn -0.38268 0 0.92388
vn -0.92388 0 0.38268
vn -0.92388 0 -0.38268
vn -0.38268 0 -0.92388
vn 0.38268 0 -0.92388
vn 0.92388 0 -0.38268
vn 0.38268 0 0.92388
vn -0.38268 0 0.92388
vn -0 1 0
vn -0 0 1
vn 0.70711 0 0.70711
vn -0 -0 1
vn -0.70711 -0 0.70711
vn -1 -0 -0
vn -0.70711 -0 -0.70711
vn -0 -0 -1
vn 0.70711 0 -0.70711
vn -0 0 -1
vt -0.78961 2.0939
vt -0.62111 2.50068
vt -0.53904 2.0939
vt -0.21432 2.41861
vt 0.01529 2.76429
vt 0.2449 2.41861
vt 0.65168 2.50068
vt 0.56961 2.0939
vt 0.56961 1.63468
vt 0.65168 1.22789
vt 0.91529 1.86429
vt -0.78961 1.63468
vt -0.53904 1.63468
vt -0.62111 1.22789
vt -0.21432 1.30996
vt 0.01529 0.96429
vt 0.2449 1.30996
vt -0.69182 2.26429
vt -0.69182 2.16429
vt -0.21432 2.16429
vt -0.21432 2.26429
vt 0.72239 2.16429
vt 0.72239 2.26429
vt 0.01529 2.26429
vt 0.01529 2.16429
vt 0.01529 2.26429
vt 0.01529 2.16429
vt 0.01529 2.16429
vt 0.01529 2.26429
vt 0.2449 2.26429
vt 0.2449 2.16429
vt -0.88961 2.0939
vt -0.69182 2.57139
vt 0.01529 2.86429
vt 0.72239 2.57139
vt 0.72239 1.15718
vt 1.01529 1.86429
vt -0.88961 1.63468
vt -0.69182 1.15718
vt 0.01529 0.86429
vt -0.62111 2.16429
vt -0.62111 1.86429
vt -0.21432 1.86429
vt -0.21432 2.16429
vt 0.65168 1.86429
vt 0.65168 2.16429
vt 0.01529 1.86429
vt -0.62111 1.86429
vt -0.62111 2.16429
vt 0.01529 1.86429
vt 0.65168 1.86429
vt 0.65168 2.16429
vt 0.01529 2.16429
vt 0.2449 2.16429
vt 0.2449 1.86429
vt 0.92018 2.0939
vt 0.56961 2.0939
vt 0.2449 2.41861
vt 0.01529 2.86429
vt -0.21432 2.41861
vt -0.53904 2.0939
vt -0.98471 1.86429
vt 0.92018 1.63468
vt 0.56961 1.63468
vt 0.2449 1.30996
vt 0.01529 0.86429
vt -0.21432 1.30996
vt -0.78961 1.86429
vt -0.53904 1.86429
vt -0.78961 2.16429
vt -0.53904 2.26429
vt -0.88961 2.16429
vt -0.88961 2.26429
vt -0.21432 1.86429
vt -0.21432 2.26429
vt 0.2449 1.86429
vt 0.56961 1.86429
vt 0.56961 2.26429
vt -0.21432 1.86429
vt 0.2449 1.86429
vt 0.2449 2.26429
vt -0.21432 2.26429
vt -0.53904 1.86429
vt -0.21432 1.86429
vt -0.53904 2.26429
vt 0.2449 1.86429
vt 0.2449 2.26429
vt 0.56961 1.86429
vt 0.82018 1.86429
vt 0.82018 2.16429
vt 0.92018 2.26429
vt 0.92018 2.16429
usemtl mat1
f 1/1/1 2/2/1 3/3/1
f 3/3/1 2/2/1 4/4/1
f 4/4/1 2/2/1 5/5/1
f 4/4/1 5/5/1 6/6/1
f 6/6/1 5/5/1 7/7/1
f 6/6/1 7/7/1 8/8/1
f 8/8/1 7/7/1 9/9/1
f 9/9/1 7/7/1 10/10/1
f 10/10/1 7/7/1 11/11/1
f 12/12/1 13/13/1 14/14/1
f 14/14/1 13/13/1 15/15/1
f 14/14/1 15/15/1 16/16/1
f 16/16/1 15/15/1 17/17/1
f 16/16/1 17/17/1 9/9/1
f 16/16/1 9/9/1 10/10/1
f 18/18/2 19/19/2 20/20/2
f 21/21/2 18/18/2 20/20/2
f 22/22/3 23/23/3 24/24/3
f 25/25/3 22/22/3 24/24/3
f 26/19/4 25/25/4 24/24/4
f 27/18/4 26/19/4 24/24/4
f 28/22/5 29/23/5 30/26/5
f 31/27/5 28/22/5 30/26/5
f 32/19/6 31/27/6 30/26/6
f 33/18/6 32/19/6 30/26/6
f 34/28/7 35/22/7 36/23/7
f 37/29/7 34/28/7 36/23/7
f 38/18/8 39/19/8 34/28/8
f 37/29/8 38/18/8 34/28/8
f 40/22/9 41/23/9 42/30/9
f 43/31/9 40/22/9 42/30/9
f 44/32/1 45/33/1 46/1/1
f 46/1/1 45/33/1 47/2/1
f 47/2/1 45/33/1 48/34/1
f 47/2/1 48/34/1 49/5/1
f 49/5/1 48/34/1 50/7/1
f 50/7/1 48/34/1 51/35/1
f 50/7/1 51/35/1 52/11/1
f 53/36/1 52/11/1 54/37/1
f 52/11/1 51/35/1 54/37/1
f 55/38/1 56/12/1 57/39/1
f 57/39/1 56/12/1 58/14/1
f 57/39/1 58/14/1 59/16/1
f 57/39/1 59/16/1 60/40/1
f 60/40/1 59/16/1 61/10/1
f 61/10/1 52/11/1 53/36/1
f 60/40/1 61/10/1 53/36/1
f 62/41/10 63/42/10 64/43/10
f 65/44/10 62/41/10 64/43/10
f 66/45/11 67/46/11 68/25/11
f 69/47/11 66/45/11 68/25/11
f 70/48/12 69/47/12 68/25/12
f 71/49/12 70/48/12 68/25/12
f 72/45/13 73/46/13 74/25/13
f 75/47/13 72/45/13 74/25/13
f 76/48/6 75/47/6 74/25/6
f 77/49/6 76/48/6 74/25/6
f 78/50/14 79/51/14 80/52/14
f 81/53/14 78/50/14 80/52/14
f 82/41/15 83/42/15 78/50/15
f 81/53/15 82/41/15 78/50/15
f 84/45/9 85/46/9 86/54/9
f 87/55/9 84/45/9 86/54/9
f 88/56/16 89/35/16 90/57/16
f 90/57/16 89/35/16 91/58/16
f 91/58/16 89/35/16 92/59/16
f 91/58/16 92/59/16 93/60/16
f 93/60/16 92/59/16 94/61/16
f 94/61/16 92/59/16 95/33/16
f 94/61/16 95/33/16 96/13/16
f 96/13/16 95/33/16 97/39/16
f 97/39/16 95/33/16 98/62/16
f 99/36/16 100/63/16 101/64/16
f 99/36/16 101/64/16 102/65/16
f 99/36/16 102/65/16 103/66/16
f 103/66/16 102/65/16 104/67/16
f 103/66/16 104/67/16 96/13/16
f 103/66/16 96/13/16 97/39/16
f 105/68/17 106/69/17 107/70/17
f 107/70/17 106/69/17 108/71/17
f 107/70/17 108/71/17 109/72/17
f 109/72/17 108/71/17 110/73/17
f 106/69/18 111/74/18 112/75/18
f 108/71/18 106/69/18 112/75/18
f 111/74/19 113/76/19 114/30/19
f 112/75/19 111/74/19 114/30/19
f 113/76/20 115/77/20 116/78/20
f 114/30/20 113/76/20 116/78/20
f 117/79/21 118/80/21 119/81/21
f 120/82/21 117/79/21 119/81/21
f 121/83/22 122/84/22 123/21/22
f 124/85/22 121/83/22 123/21/22
f 122/84/23 125/86/23 126/87/23
f 123/21/23 122/84/23 126/87/23
f 125/86/24 127/88/24 128/78/24
f 126/87/24 125/86/24 128/78/24
f 127/88/25 129/89/25 130/90/25
f 130/90/25 131/91/25 128/78/25
f 127/88/25 130/90/25 128/78/25
f 132/92/25 131/91/25 130/90/25
# Vertices: 132, normals: 25, texture coordinates: 92, faces: 100

