g RoundTable_Umodel_Mesh_1
v -0.5303301 0.0009999275 0.5303301
v -0.75 3.001 -3.278354E-08
v -0.5303301 3.001 0.5303301
v -0.75 0.0009999275 -3.278354E-08
v -0 0.0009999275 0.75
v -0.5303301 3.001 0.5303301
v -0 3.001 0.75
v -0.5303301 0.0009999275 0.5303301
v 0.5303301 0.0009999275 0.5303301
v -0 3.001 0.75
v 0.5303301 3.001 0.5303301
v -0 0.0009999275 0.75
v 0.75 0.0009999275 -3.278354E-08
v 0.5303301 3.001 0.5303301
v 0.75 3.001 -3.278354E-08
v 0.5303301 0.0009999275 0.5303301
v 0.5303301 0.0009999275 -0.5303301
v 0.75 3.001 -3.278354E-08
v 0.5303301 3.001 -0.5303301
v 0.75 0.0009999275 -3.278354E-08
v -6.556708E-08 0.0009999275 -0.75
v 0.5303301 3.001 -0.5303301
v -6.556708E-08 3.001 -0.75
v 0.5303301 0.0009999275 -0.5303301
v -0.5303302 0.0009999275 -0.53033
v -6.556708E-08 3.001 -0.75
v -0.5303302 3.001 -0.53033
v -6.556708E-08 0.0009999275 -0.75
v -0.75 0.0009999275 -3.278354E-08
v -0.5303302 3.001 -0.53033
v -0.75 3.001 -3.278354E-08
v -0.5303302 0.0009999275 -0.53033
vt 0.5303301 -3
vt -5.960464E-08 0
vt 0.5303301 0
vt -5.960464E-08 -3
vt 0 -3
vt -0.5303301 0
vt 0 0
vt -0.5303301 -3
vt 0.5303301 -3
vt 0 0
vt 0.5303301 0
vt 0 -3
vt 2.980232E-08 -3
vt -0.5303301 0
vt 2.980232E-08 0
vt -0.5303301 -3
vt 0.5303301 -3
vt 2.980232E-08 0
vt 0.5303301 0
vt 2.980232E-08 -3
vt 5.960464E-08 -3
vt -0.5303301 0
vt 5.960464E-08 0
vt -0.5303301 -3
vt 0.5303302 -3
vt 5.960464E-08 0
vt 0.5303302 0
vt 5.960464E-08 -3
vt -5.960464E-08 -3
vt -0.5303299 0
vt -5.960464E-08 0
vt -0.5303299 -3
vn -0.9238795 0 0.3826834
vn -0.9238795 0 0.3826834
vn -0.9238795 0 0.3826834
vn -0.9238795 0 0.3826834
vn -0.3826835 0 0.9238795
vn -0.3826835 0 0.9238795
vn -0.3826835 0 0.9238795
vn -0.3826835 0 0.9238795
vn 0.3826835 0 0.9238795
vn 0.3826835 0 0.9238795
vn 0.3826835 0 0.9238795
vn 0.3826835 0 0.9238795
vn 0.9238795 0 0.3826834
vn 0.9238795 0 0.3826834
vn 0.9238795 0 0.3826834
vn 0.9238795 0 0.3826834
vn 0.9238795 0 -0.3826835
vn 0.9238795 0 -0.3826835
vn 0.9238795 0 -0.3826835
vn 0.9238795 0 -0.3826835
vn 0.3826834 0 -0.9238795
vn 0.3826834 0 -0.9238795
vn 0.3826834 0 -0.9238795
vn 0.3826834 0 -0.9238795
vn -0.3826835 0 -0.9238795
vn -0.3826835 0 -0.9238795
vn -0.3826835 0 -0.9238795
vn -0.3826835 0 -0.9238795
vn -0.9238795 0 -0.38268334
vn -0.9238795 0 -0.38268334
vn -0.9238795 0 -0.38268334
vn -0.9238795 0 -0.38268334
g RoundTable_Umodel_Mesh_1_0
f 3/3/3 2/2/2 1/1/1
f 1/1/1 2/2/2 4/4/4
f 7/7/7 6/6/6 5/5/5
f 5/5/5 6/6/6 8/8/8
f 11/11/11 10/10/10 9/9/9
f 9/9/9 10/10/10 12/12/12
f 15/15/15 14/14/14 13/13/13
f 13/13/13 14/14/14 16/16/16
f 19/19/19 18/18/18 17/17/17
f 17/17/17 18/18/18 20/20/20
f 23/23/23 22/22/22 21/21/21
f 21/21/21 22/22/22 24/24/24
f 27/27/27 26/26/26 25/25/25
f 25/25/25 26/26/26 28/28/28
f 31/31/31 30/30/30 29/29/29
f 29/29/29 30/30/30 32/32/32
